<svg
  xmlns="http://www.w3.org/2000/svg"
  viewBox="0 0 1600 900"
  preserveAspectRatio="xMidYMid slice"
>

  <defs>
    <filter id="grain">
      <feTurbulence
        type="fractalNoise"
        baseFrequency=".012"
        numOctaves="4"
        seed="18"
        result="noise"
      />
      <feColorMatrix
        in="noise"
        type="matrix"
        values="
          1 0 0 0 0
          0 1 0 0 0
          0 0 1 0 0
          0 0 0 .16 0
        "
      />
      <feBlend in="SourceGraphic" mode="soft-light"/>
    </filter>

    <filter id="soft">
      <feGaussianBlur stdDeviation="13"/>
    </filter>

    <filter id="glow">
      <feGaussianBlur stdDeviation="8" result="blur"/>
      <feMerge>
        <feMergeNode in="blur"/>
        <feMergeNode in="SourceGraphic"/>
      </feMerge>
    </filter>

    <pattern
      id="stars"
      width="130"
      height="110"
      patternUnits="userSpaceOnUse"
    >
      <circle cx="18" cy="22" r="1.2" fill="#e8c36f" opacity=".6"/>
      <circle cx="76" cy="14" r=".8" fill="#fff0bf" opacity=".55"/>
      <circle cx="112" cy="58" r="1" fill="#c99949" opacity=".7"/>
      <circle cx="42" cy="87" r=".7" fill="#f6dfa4" opacity=".45"/>
    </pattern>
  </defs>


  <defs>
    <radialGradient id="sky" cx=".5" cy=".45" r=".72">
      <stop offset="0" stop-color="#18345a"/>
      <stop offset=".42" stop-color="#0b1e3b"/>
      <stop offset="1" stop-color="#050b19"/>
    </radialGradient>

    <radialGradient id="moon" cx=".35" cy=".3" r=".7">
      <stop offset="0" stop-color="#fff2c4"/>
      <stop offset=".5" stop-color="#ddb35e"/>
      <stop offset="1" stop-color="#735122"/>
    </radialGradient>
  </defs>

  <rect width="1600" height="900" fill="url(#sky)"/>
  <rect width="1600" height="900" fill="url(#stars)" opacity=".95"/>

  <g opacity=".22" filter="url(#soft)">
    <ellipse cx="430" cy="310" rx="350" ry="185" fill="#3d3677"/>
    <ellipse cx="1190" cy="620" rx="390" ry="220" fill="#176070"/>
    <ellipse cx="810" cy="455" rx="300" ry="220" fill="#9b6737"/>
  </g>

  <g transform="translate(1320 130)" filter="url(#glow)">
    <circle r="72" fill="url(#moon)"/>
    <circle cx="34" cy="-15" r="74" fill="#071328"/>
  </g>

  <g
    transform="translate(1130 175) rotate(-9)"
    opacity=".40"
    filter="url(#grain)"
  >
    <ellipse cx="53" cy="40" rx="29" ry="38" fill="#aeb9bd"/>
    <ellipse cx="105" cy="36" rx="29" ry="39" fill="#c6b8ad"/>

    <path
      d="M31 73 C5 151 22 240 80 280
         C116 235 123 145 89 75Z"
      fill="#27677e"
    />

    <path
      d="M82 72 C64 144 81 231 145 269
         C177 201 166 123 121 67Z"
      fill="#793f58"
    />
  </g>

  <g
    transform="translate(785 105)"
    opacity=".85"
    filter="url(#glow)"
  >
    <path
      d="M0 18 C29 -3 50 3 76 25"
      fill="none"
      stroke="#f5e7bb"
      stroke-width="7"
      stroke-linecap="round"
    />
    <path
      d="M76 25 C101 4 125 3 153 20"
      fill="none"
      stroke="#f5e7bb"
      stroke-width="7"
      stroke-linecap="round"
    />
  </g>

  <g
    stroke="#d7b36c"
    stroke-width="1.2"
    fill="none"
    opacity=".24"
  >
    <path d="M165 260 L350 135 L525 255 L705 120"/>
    <path d="M965 170 L1110 295 L1320 230 L1450 370"/>
    <path d="M260 680 L465 560 L650 705 L850 535"/>
  </g>

  <g fill="#f0cc78" opacity=".72">
    <circle cx="165" cy="260" r="4"/>
    <circle cx="350" cy="135" r="3"/>
    <circle cx="525" cy="255" r="5"/>
    <circle cx="705" cy="120" r="3"/>
    <circle cx="965" cy="170" r="4"/>
    <circle cx="1110" cy="295" r="3"/>
    <circle cx="1320" cy="230" r="5"/>
    <circle cx="1450" cy="370" r="3"/>
  </g>

  <rect
    width="1600"
    height="900"
    fill="#efe1bf"
    opacity=".12"
    filter="url(#grain)"
  />
</svg>
