<svg
  xmlns="http://www.w3.org/2000/svg"
  viewBox="0 0 1600 900"
  preserveAspectRatio="xMidYMid slice"
>

  <defs>
    <filter id="grain">
      <feTurbulence
        type="fractalNoise"
        baseFrequency=".012"
        numOctaves="4"
        seed="18"
        result="noise"
      />
      <feColorMatrix
        in="noise"
        type="matrix"
        values="
          1 0 0 0 0
          0 1 0 0 0
          0 0 1 0 0
          0 0 0 .16 0
        "
      />
      <feBlend in="SourceGraphic" mode="soft-light"/>
    </filter>

    <filter id="soft">
      <feGaussianBlur stdDeviation="13"/>
    </filter>

    <filter id="glow">
      <feGaussianBlur stdDeviation="8" result="blur"/>
      <feMerge>
        <feMergeNode in="blur"/>
        <feMergeNode in="SourceGraphic"/>
      </feMerge>
    </filter>

    <pattern
      id="stars"
      width="130"
      height="110"
      patternUnits="userSpaceOnUse"
    >
      <circle cx="18" cy="22" r="1.2" fill="#e8c36f" opacity=".6"/>
      <circle cx="76" cy="14" r=".8" fill="#fff0bf" opacity=".55"/>
      <circle cx="112" cy="58" r="1" fill="#c99949" opacity=".7"/>
      <circle cx="42" cy="87" r=".7" fill="#f6dfa4" opacity=".45"/>
    </pattern>
  </defs>


  <defs>
    <radialGradient id="labNight" cx=".5" cy=".48" r=".78">
      <stop offset="0" stop-color="#2e2630"/>
      <stop offset=".42" stop-color="#13172a"/>
      <stop offset="1" stop-color="#070912"/>
    </radialGradient>
  </defs>

  <rect width="1600" height="900" fill="url(#labNight)"/>
  <rect width="1600" height="900" fill="url(#stars)" opacity=".24"/>

  <g opacity=".18" filter="url(#soft)">
    <ellipse cx="800" cy="450" rx="390" ry="315" fill="#9a6a40"/>
    <ellipse cx="260" cy="270" rx="260" ry="210" fill="#3d467b"/>
    <ellipse cx="1320" cy="650" rx="310" ry="240" fill="#225a64"/>
  </g>

  <g
    transform="translate(800 450)"
    fill="none"
    stroke="#c49b62"
    stroke-linecap="round"
    opacity=".36"
    filter="url(#grain)"
  >
    <path
      d="M0 -320
         C190 -320 320 -190 320 0
         C320 190 190 320 0 320
         C-190 320 -320 190 -320 0
         C-320 -190 -190 -320 0 -320Z"
      stroke-width="18"
      stroke-dasharray="330 82"
    />

    <path
      d="M0 -245
         C145 -245 245 -145 245 0
         C245 145 145 245 0 245
         C-145 245 -245 145 -245 0
         C-245 -145 -145 -245 0 -245Z"
      stroke-width="16"
      stroke-dasharray="245 65"
      transform="rotate(31)"
    />

    <path
      d="M0 -168
         C100 -168 168 -100 168 0
         C168 100 100 168 0 168
         C-100 168 -168 100 -168 0
         C-168 -100 -100 -168 0 -168Z"
      stroke-width="14"
      stroke-dasharray="170 52"
      transform="rotate(-27)"
    />

    <path
      d="M0 -92
         C55 -92 92 -55 92 0
         C92 55 55 92 0 92
         C-55 92 -92 55 -92 0
         C-92 -55 -55 -92 0 -92Z"
      stroke-width="12"
      stroke-dasharray="90 34"
      transform="rotate(18)"
    />
  </g>

  <g
    transform="translate(760 365)"
    opacity=".38"
    filter="url(#grain)"
  >
    <ellipse cx="46" cy="42" rx="30" ry="40" fill="#c7c0b7"/>
    <path
      d="M12 78 C-4 148 12 230 82 263
         C110 194 102 117 73 73Z"
      fill="#315d69"
    />
  </g>

  <g
    transform="translate(1165 170)"
    opacity=".30"
  >
    <rect
      x="0"
      y="0"
      width="115"
      height="175"
      rx="54"
      fill="#080b13"
      stroke="#d2a866"
      stroke-width="5"
    />
    <path
      d="M30 175 V85 C30 35 85 35 85 85 V175"
      fill="#11182a"
      stroke="#d2a866"
      stroke-width="4"
    />
  </g>

  <g
    transform="translate(245 640)"
    opacity=".28"
    filter="url(#grain)"
  >
    <ellipse cx="78" cy="40" rx="28" ry="37" fill="#b8b7b0"/>
    <path
      d="M38 75 C20 141 28 215 104 258
         C135 185 125 114 99 70Z"
      fill="#72404d"
    />
  </g>

  <rect
    width="1600"
    height="900"
    fill="#e8ddc1"
    opacity=".09"
    filter="url(#grain)"
  />
</svg>
