<svg
  xmlns="http://www.w3.org/2000/svg"
  viewBox="0 0 1600 900"
  preserveAspectRatio="xMidYMid slice"
>
  <defs>
    <linearGradient id="night" x1="0" y1="0" x2="1" y2="1">
      <stop offset="0" stop-color="#07152d"/>
      <stop offset=".42" stop-color="#0b1837"/>
      <stop offset=".72" stop-color="#08263a"/>
      <stop offset="1" stop-color="#07131f"/>
    </linearGradient>

    <radialGradient id="goldMist" cx=".52" cy=".48" r=".42">
      <stop offset="0" stop-color="#d8a851" stop-opacity=".30"/>
      <stop offset=".38" stop-color="#9e6d2e" stop-opacity=".12"/>
      <stop offset="1" stop-color="#20150b" stop-opacity="0"/>
    </radialGradient>

    <radialGradient id="moon" cx=".35" cy=".3" r=".7">
      <stop offset="0" stop-color="#fff2bd"/>
      <stop offset=".45" stop-color="#e0b65e"/>
      <stop offset="1" stop-color="#7b5724"/>
    </radialGradient>

    <linearGradient id="river" x1="0" y1=".4" x2="1" y2=".6">
      <stop offset="0" stop-color="#15334c"/>
      <stop offset=".35" stop-color="#0e5670"/>
      <stop offset=".68" stop-color="#16808a"/>
      <stop offset="1" stop-color="#0b3a50"/>
    </linearGradient>

    <linearGradient id="dressRed" x1="0" y1="0" x2="1" y2="1">
      <stop offset="0" stop-color="#8b3f49"/>
      <stop offset=".55" stop-color="#4c2c50"/>
      <stop offset="1" stop-color="#182342"/>
    </linearGradient>

    <linearGradient id="dressBlue" x1="0" y1="0" x2="1" y2="1">
      <stop offset="0" stop-color="#397f95"/>
      <stop offset=".55" stop-color="#244a77"/>
      <stop offset="1" stop-color="#131b3d"/>
    </linearGradient>

    <filter id="paper">
      <feTurbulence
        type="fractalNoise"
        baseFrequency=".007 .025"
        numOctaves="3"
        seed="14"
        result="noise"
      />
      <feColorMatrix
        in="noise"
        type="matrix"
        values="
          1 0 0 0 0
          0 1 0 0 0
          0 0 1 0 0
          0 0 0 .22 0
        "
      />
      <feBlend in="SourceGraphic" mode="soft-light"/>
    </filter>

    <filter id="watercolor">
      <feTurbulence
        type="fractalNoise"
        baseFrequency=".012"
        numOctaves="4"
        seed="7"
        result="grain"
      />
      <feDisplacementMap
        in="SourceGraphic"
        in2="grain"
        scale="11"
      />
      <feGaussianBlur stdDeviation=".35"/>
    </filter>

    <filter id="softGlow">
      <feGaussianBlur stdDeviation="16" result="blur"/>
      <feMerge>
        <feMergeNode in="blur"/>
        <feMergeNode in="SourceGraphic"/>
      </feMerge>
    </filter>

    <filter id="moonGlow">
      <feGaussianBlur stdDeviation="9" result="blur"/>
      <feMerge>
        <feMergeNode in="blur"/>
        <feMergeNode in="SourceGraphic"/>
      </feMerge>
    </filter>

    <pattern id="stars" width="130" height="110" patternUnits="userSpaceOnUse">
      <circle cx="18" cy="22" r="1.4" fill="#e9c46f" opacity=".7"/>
      <circle cx="77" cy="13" r=".9" fill="#fff4c8" opacity=".65"/>
      <circle cx="111" cy="57" r="1.2" fill="#c99d4b" opacity=".75"/>
      <circle cx="39" cy="81" r=".8" fill="#f6dda0" opacity=".55"/>
      <circle cx="92" cy="96" r=".7" fill="#fff1bd" opacity=".42"/>
    </pattern>
  </defs>

  <rect width="1600" height="900" fill="url(#night)"/>
  <rect width="1600" height="900" fill="url(#stars)" opacity=".78"/>
  <rect width="1600" height="900" fill="url(#goldMist)"/>

  <g opacity=".38" filter="url(#watercolor)">
    <path
      d="M-100 610
         C180 455 325 700 560 585
         C790 470 930 665 1190 495
         C1355 387 1510 390 1700 300
         L1700 770
         C1405 710 1220 865 910 790
         C600 714 330 864 -100 770Z"
      fill="url(#river)"
    />

    <path
      d="M-90 668
         C205 530 350 760 590 642
         C805 535 1010 733 1245 565
         C1390 460 1535 468 1690 398"
      fill="none"
      stroke="#8dc0c1"
      stroke-width="18"
      opacity=".12"
    />
  </g>

  <g transform="translate(1320 105)" filter="url(#moonGlow)">
    <circle r="64" fill="url(#moon)"/>
    <circle cx="32" cy="-14" r="66" fill="#07152d"/>
  </g>

  <g
    transform="translate(895 72)"
    opacity=".72"
    filter="url(#watercolor)"
  >
    <path
      d="M0 58 L48 18 L92 56 L126 5 L165 55 L202 25 L250 63
         L250 122 L0 122Z"
      fill="#132d45"
      stroke="#a77a40"
      stroke-opacity=".24"
    />
    <path d="M10 58 L48 18 L88 58" fill="#6f3840"/>
    <path d="M92 56 L126 5 L165 55" fill="#70323c"/>
    <path d="M164 55 L202 25 L245 63" fill="#6a3541"/>
    <rect x="28" y="73" width="15" height="25" fill="#d6a650" opacity=".48"/>
    <rect x="113" y="67" width="16" height="30" fill="#e3b75f" opacity=".44"/>
    <rect x="199" y="76" width="14" height="24" fill="#ddb05a" opacity=".42"/>
  </g>

  <g
    transform="translate(1210 164) rotate(-10)"
    opacity=".48"
    filter="url(#watercolor)"
  >
    <ellipse cx="53" cy="46" rx="31" ry="41" fill="#aeb8bd"/>
    <ellipse cx="108" cy="40" rx="31" ry="42" fill="#c5b7ad"/>

    <path
      d="M30 78
         C5 145 15 230 76 276
         C116 237 122 145 91 82Z"
      fill="url(#dressBlue)"
    />

    <path
      d="M83 80
         C63 144 80 230 146 264
         C177 205 169 126 124 73Z"
      fill="url(#dressRed)"
    />

    <path
      d="M72 53 C86 43 96 39 110 39"
      fill="none"
      stroke="#e8d5bd"
      stroke-width="7"
      stroke-linecap="round"
    />
  </g>

  <g
    transform="translate(1160 545)"
    opacity=".57"
    filter="url(#watercolor)"
  >
    <path
      d="M132 260
         C120 190 136 118 150 44"
      fill="none"
      stroke="#d8d1b7"
      stroke-width="15"
      stroke-linecap="round"
    />

    <path
      d="M147 133 C95 82 72 61 31 34"
      fill="none"
      stroke="#d8d1b7"
      stroke-width="8"
      stroke-linecap="round"
    />

    <path
      d="M149 112 C198 58 231 38 275 22"
      fill="none"
      stroke="#d8d1b7"
      stroke-width="8"
      stroke-linecap="round"
    />

    <path
      d="M150 83 C137 36 139 12 144 -30"
      fill="none"
      stroke="#eee7cf"
      stroke-width="7"
      stroke-linecap="round"
    />

    <ellipse cx="47" cy="36" rx="60" ry="43" fill="#d8e4d9" opacity=".25"/>
    <ellipse cx="239" cy="28" rx="68" ry="48" fill="#e2e5d3" opacity=".24"/>
    <ellipse cx="146" cy="-4" rx="75" ry="52" fill="#f0ead3" opacity=".20"/>

    <g fill="#f7e7ad" opacity=".72">
      <circle cx="17" cy="20" r="3"/>
      <circle cx="53" cy="61" r="2.5"/>
      <circle cx="103" cy="8" r="3"/>
      <circle cx="171" cy="14" r="2"/>
      <circle cx="223" cy="45" r="3"/>
      <circle cx="275" cy="10" r="2.5"/>
    </g>
  </g>

  <g
    transform="translate(1392 570) rotate(12)"
    opacity=".40"
  >
    <line x1="0" y1="0" x2="0" y2="220" stroke="#d4b171" stroke-width="5"/>
    <line x1="48" y1="0" x2="48" y2="220" stroke="#d4b171" stroke-width="5"/>

    <g stroke="#d4b171" stroke-width="4">
      <line x1="0" y1="25" x2="48" y2="25"/>
      <line x1="0" y1="62" x2="48" y2="62"/>
      <line x1="0" y1="99" x2="48" y2="99"/>
      <line x1="0" y1="136" x2="48" y2="136"/>
      <line x1="0" y1="173" x2="48" y2="173"/>
    </g>
  </g>

  <g
    transform="translate(95 565) rotate(-8)"
    opacity=".42"
    filter="url(#watercolor)"
  >
    <ellipse cx="85" cy="45" rx="30" ry="39" fill="#abb4bb"/>
    <path
      d="M42 82
         C18 157 28 252 116 294
         C147 217 138 132 107 76Z"
      fill="url(#dressRed)"
    />
    <path
      d="M70 161 L159 176 L145 232 L57 214Z"
      fill="#e2c88e"
      opacity=".85"
    />
    <path
      d="M109 166 L108 224"
      stroke="#805f39"
      stroke-width="2"
      opacity=".65"
    />
  </g>

  <g
    transform="translate(1420 610) rotate(7)"
    opacity=".33"
    filter="url(#watercolor)"
  >
    <ellipse cx="54" cy="42" rx="28" ry="37" fill="#9eaaa9"/>
    <path
      d="M17 77
         C-3 142 10 226 85 260
         C115 187 106 113 75 72Z"
      fill="#315c58"
    />
    <ellipse cx="110" cy="165" rx="42" ry="31" fill="#7c694d"/>
    <circle cx="96" cy="151" r="6" fill="#aa4338"/>
    <circle cx="122" cy="169" r="6" fill="#d3a64c"/>
    <path
      d="M74 137 L150 71"
      stroke="#e2c788"
      stroke-width="4"
      stroke-linecap="round"
    />
  </g>

  <g
    transform="translate(735 95)"
    opacity=".82"
    filter="url(#softGlow)"
  >
    <path
      d="M0 18 C30 -2 50 2 76 25"
      fill="none"
      stroke="#f6e8bd"
      stroke-width="7"
      stroke-linecap="round"
    />
    <path
      d="M76 25 C101 3 124 2 153 19"
      fill="none"
      stroke="#f6e8bd"
      stroke-width="7"
      stroke-linecap="round"
    />
  </g>

  <g opacity=".17" filter="url(#paper)">
    <rect width="1600" height="900" fill="#efe3c3"/>
  </g>

  <rect
    x="8"
    y="8"
    width="1584"
    height="884"
    fill="none"
    stroke="#c79b4e"
    stroke-opacity=".18"
  />
</svg>
